# xmcd
#
# Track frame offsets:
#	150
#	881
#	17371
#	31092
#	48836
#	61088
#	77593
#	96869
#	109526
#	122279
#	134018
#	150608
#	162022
#	176019
#	191487
#	207975
#	243465
#	257458
#	272647
#	290017
#	303869
#	317213
#	335440
#
# Disc length: 4645 seconds
#
# Revision: 1
# Processed by: cddbd v1.5.2PL0 Copyright (c) Steve Scherf et al.
# Submitted via: audiograbber 1.83.01
#
DISCID=20122317
DTITLE=Country Hotdisc - Country Hotdisc 095
DYEAR=2006
DGENRE=Country
TTITLE0=Intro  - Intro 
TTITLE1=Red Hot Rock and Roller  - Dave Sheriff
TTITLE2=A Heart You´ll Have To Face  - Gary Cambell
TTITLE3=It´s Too Late To Worry  - Jo Dee Messina
TTITLE4=Tirn Up The Music  - Kenny Holcomb
TTITLE5=My Little Girl  - Tim Mcgraw
TTITLE6=Sun Will Rise  - Burrito Deluxe
TTITLE7=Before There Was You  - Trent Tyler
TTITLE8=Angry At The Big Oak Tree  - Frank Ifield
TTITLE9=Over You  - Darren Wilson
TTITLE10=Rear View Mirror  - Phil Yonger
TTITLE11=Dreams Come True  - Gaylynn Robinson
TTITLE12=In The Heat Of The Night - Michelle Rae
TTITLE13=Knew You At All  - Richard Frankz
TTITLE14=If You´re Going Through Hell  - Rodney Atkins
TTITLE15=Special 50th Anniversay Medley - George Hamilton Iv
TTITLE16=Wonderful Tonight  - Charlie Rich
TTITLE17=I Don´t Want To Be Alone Tonight  - Dr Hook
TTITLE18=Don´t Forget To Remember  - Donna Fargo
TTITLE19=Till I Can Make It On My Own - Tammy Wynette
TTITLE20=Cowboys Don´t Shoot Straight  - Tammy Wynette
TTITLE21=Inside  - Ronnie Milsap
TTITLE22=I Love A Rainy Night  - Eddie Rabbitt
EXTD=
EXTT0=
EXTT1=
EXTT2=
EXTT3=
EXTT4=
EXTT5=
EXTT6=
EXTT7=
EXTT8=
EXTT9=
EXTT10=
EXTT11=
EXTT12=
EXTT13=
EXTT14=
EXTT15=
EXTT16=
EXTT17=
EXTT18=
EXTT19=
EXTT20=
EXTT21=
EXTT22=
PLAYORDER=
